<svg version="1.1" xmlns="http://www.w3.org/2000/svg" xmlns:xlink="http://www.w3.org/1999/xlink" width="800" height="300"><defs/><g><rect fill="rgb(63, 94, 251)" stroke="none" x="0" y="0" width="800" height="81.81818181818181" transform="matrix(1 0 0 1 0 0)"/><text fill="white" stroke="none" font-family="Helvetica, Arial, sans-serif" font-size="16px" font-style="normal" font-weight="bold" text-decoration="undefined" x="400" y="32.90909090909091" text-anchor="middle" dominant-baseline="text-before-edge" transform="matrix(1 0 0 1 0 0)">100 users</text><text fill="white" stroke="none" font-family="Helvetica, Arial, sans-serif" font-size="14px" font-style="normal" font-weight="bold" text-decoration="undefined" x="4" y="33.90909090909091" text-anchor="start" dominant-baseline="text-before-edge" transform="matrix(1 0 0 1 0 0)">did a thing</text><text fill="white" stroke="none" font-family="Helvetica, Arial, sans-serif" font-size="14px" font-style="normal" font-weight="bold" text-decoration="undefined" x="796" y="33.90909090909091" text-anchor="end" dominant-baseline="text-before-edge" transform="matrix(1 0 0 1 0 0)">100% absolute</text><rect fill="rgb(117, 87, 210)" stroke="none" x="80" y="109.0909090909091" width="640" height="81.81818181818181" transform="matrix(1 0 0 1 0 0)"/><text fill="white" stroke="none" font-family="Helvetica, Arial, sans-serif" font-size="16px" font-style="normal" font-weight="bold" text-decoration="undefined" x="400" y="142" text-anchor="middle" dominant-baseline="text-before-edge" transform="matrix(1 0 0 1 0 0)">80 users</text><text fill="white" stroke="none" font-family="Helvetica, Arial, sans-serif" font-size="14px" font-style="normal" font-weight="bold" text-decoration="undefined" x="84" y="143" text-anchor="start" dominant-baseline="text-before-edge" transform="matrix(1 0 0 1 0 0)">did another thing</text><text fill="white" stroke="none" font-family="Helvetica, Arial, sans-serif" font-size="14px" font-style="normal" font-weight="bold" text-decoration="undefined" x="716" y="134" text-anchor="end" dominant-baseline="text-before-edge" transform="matrix(1 0 0 1 0 0)">80% absolute</text><text fill="white" stroke="none" font-family="Helvetica, Arial, sans-serif" font-size="14px" font-style="normal" font-weight="bold" text-decoration="undefined" x="716" y="152" text-anchor="end" dominant-baseline="text-before-edge" transform="matrix(1 0 0 1 0 0)">80% relative</text><rect fill="rgb(171, 80, 169)" stroke="none" x="160" y="218.1818181818182" width="480" height="81.81818181818181" transform="matrix(1 0 0 1 0 0)"/><text fill="white" stroke="none" font-family="Helvetica, Arial, sans-serif" font-size="16px" font-style="normal" font-weight="bold" text-decoration="undefined" x="400" y="251.09090909090912" text-anchor="middle" dominant-baseline="text-before-edge" transform="matrix(1 0 0 1 0 0)">60 users</text><text fill="white" stroke="none" font-family="Helvetica, Arial, sans-serif" font-size="14px" font-style="normal" font-weight="bold" text-decoration="undefined" x="164" y="252.09090909090912" text-anchor="start" dominant-baseline="text-before-edge" transform="matrix(1 0 0 1 0 0)">did something good</text><text fill="white" stroke="none" font-family="Helvetica, Arial, sans-serif" font-size="14px" font-style="normal" font-weight="bold" text-decoration="undefined" x="636" y="243.09090909090912" text-anchor="end" dominant-baseline="text-before-edge" transform="matrix(1 0 0 1 0 0)">60% absolute</text><text fill="white" stroke="none" font-family="Helvetica, Arial, sans-serif" font-size="14px" font-style="normal" font-weight="bold" text-decoration="undefined" x="636" y="261.0909090909091" text-anchor="end" dominant-baseline="text-before-edge" transform="matrix(1 0 0 1 0 0)">75% relative</text></g></svg>